<svg width="256" height="256" viewBox="0 0 256 256" fill="none" xmlns="http://www.w3.org/2000/svg">
<path d="M191.933 156.234H188.801L178 135.285C177.496 134.308 176.234 133.9 175.227 134.389C174.219 134.877 173.799 136.101 174.302 137.078L184.18 156.234H129.139L144.733 125.991L146.379 127.588C147.176 128.36 148.507 128.36 149.303 127.588L152.25 124.73L155.198 127.588C156.005 128.371 157.314 128.371 158.121 127.588L161.068 124.73L164.016 127.588C164.812 128.36 166.143 128.36 166.939 127.588L168.586 125.991L171.437 131.521C171.948 132.511 173.189 132.913 174.21 132.417C175.231 131.922 175.645 130.719 175.135 129.729L158.508 97.4837C157.761 96.0355 155.558 96.0355 154.811 97.4837L152.25 102.449L143.061 84.6275C143.059 84.6245 143.058 84.6217 143.056 84.6187L129.848 59.0035C129.101 57.5552 126.897 57.5552 126.151 59.0035L112.943 84.6175C112.941 84.6217 112.939 84.626 112.937 84.6302L94.9309 119.552L92.3703 114.586C91.6234 113.137 89.4199 113.137 88.6733 114.586L67.1988 156.234H64.0669C62.9253 156.234 62 157.131 62 158.238C62 159.345 62.925 160.242 64.0669 160.242H187.52C187.522 160.242 187.524 160.242 187.526 160.242C187.528 160.242 187.53 160.242 187.533 160.242H191.933C193.075 160.242 194 159.345 194 158.238C194 157.131 193.075 156.234 191.933 156.234ZM156.66 102.861L166.638 122.212L165.478 123.337L162.531 120.478C161.723 119.696 160.415 119.696 159.608 120.478L156.66 123.337L153.712 120.478C152.905 119.696 151.596 119.696 150.789 120.478L147.841 123.337L146.682 122.212L156.66 102.861ZM128 64.3812L138.713 85.1572L136.818 86.9945L133.871 84.136C133.063 83.3532 131.755 83.3532 130.948 84.136L128 86.9945L125.052 84.136C124.245 83.3532 122.937 83.3532 122.129 84.136L119.182 86.9945L117.287 85.1572L128 64.3812ZM90.5218 119.964L99.7649 137.889L99.3403 138.301L96.3927 135.443C95.5852 134.66 94.2768 134.66 93.4696 135.443L90.5218 138.301L87.5742 135.443C86.7668 134.66 85.4584 134.66 84.6511 135.443L81.7033 138.301L81.2787 137.889L90.5218 119.964ZM71.8201 156.234L79.3304 141.669L80.2423 142.553C81.0384 143.325 82.3695 143.325 83.1654 142.553L86.1129 139.694L89.0605 142.553C89.868 143.336 91.1764 143.336 91.9836 142.553L94.9312 139.694L97.8787 142.553C98.6751 143.325 100.005 143.325 100.802 142.553L101.714 141.669L109.224 156.234H71.8201ZM113.844 156.234L97.2409 124.033L115.338 88.9367L117.72 91.246C118.527 92.0287 119.836 92.0287 120.643 91.246L123.59 88.3875L126.538 91.246C127.345 92.0287 128.654 92.0287 129.461 91.246L132.409 88.3875L135.356 91.246C136.153 92.018 137.483 92.018 138.279 91.246L140.661 88.9367L149.892 106.841C149.908 106.87 149.925 106.897 149.942 106.925L124.517 156.234H113.844Z" fill="#7B7B7B"/>
<path d="M183.115 64.3088C183.068 64.3088 183.022 64.309 182.976 64.3098C182.977 64.2648 182.977 64.2203 182.977 64.175C182.977 59.5335 179.083 55.7575 174.296 55.7575C169.51 55.7575 165.616 59.5338 165.616 64.175C165.616 64.22 165.616 64.2648 165.617 64.3098C165.57 64.3093 165.524 64.3088 165.478 64.3088C160.691 64.3088 156.797 68.0848 156.797 72.7263C156.797 77.3678 160.692 81.1438 165.478 81.1438H183.115C187.901 81.1438 191.795 77.3675 191.795 72.7263C191.795 68.085 187.901 64.3088 183.115 64.3088ZM183.115 77.1355H165.478C162.971 77.1355 160.931 75.1575 160.931 72.7263C160.931 70.295 162.971 68.317 165.478 68.317C166.164 68.317 166.822 68.461 167.435 68.745C168.225 69.1113 169.168 68.9548 169.788 68.354C170.407 67.7533 170.569 66.839 170.191 66.0725C169.898 65.4783 169.75 64.84 169.75 64.175C169.75 61.7438 171.789 59.7658 174.297 59.7658C176.804 59.7658 178.844 61.7438 178.844 64.175C178.844 64.8398 178.695 65.4783 178.402 66.0725C178.025 66.839 178.186 67.7533 178.806 68.354C179.425 68.955 180.368 69.1113 181.158 68.745C181.771 68.461 182.429 68.317 183.115 68.317C185.622 68.317 187.662 70.295 187.662 72.7263C187.662 75.1575 185.622 77.1355 183.115 77.1355Z" fill="#2DD36F"/>
<path d="M90.3831 83.55C90.3838 83.505 90.3841 83.4605 90.3841 83.4152C90.3841 78.7737 86.4901 74.9977 81.7036 74.9977C76.917 74.9977 73.023 78.7737 73.023 83.4152C73.023 83.4602 73.0233 83.505 73.024 83.55C72.9776 83.5495 72.9315 83.549 72.8851 83.549C68.0985 83.549 64.2045 87.325 64.2045 91.9665C64.2045 96.608 68.0988 100.384 72.8851 100.384H90.5218C95.3083 100.384 99.2023 96.6077 99.2023 91.9665C99.2028 87.2802 95.2289 83.4852 90.3831 83.55ZM90.5218 96.3757H72.8851C70.3778 96.3757 68.338 94.3977 68.338 91.9665C68.338 89.5352 70.3778 87.5572 72.8851 87.5572C73.5706 87.5572 74.2291 87.7012 74.8419 87.9852C75.6321 88.352 76.5746 88.195 77.1947 87.5942C77.8142 86.9935 77.9756 86.0792 77.5979 85.3127C77.305 84.7185 77.1565 84.0802 77.1565 83.4152C77.1565 80.984 79.1963 79.006 81.7036 79.006C84.2108 79.006 86.2506 80.984 86.2506 83.4152C86.2506 84.08 86.1021 84.7185 85.8092 85.3127C85.4351 86.0712 85.5996 87.0002 86.2124 87.5942C86.825 88.188 87.7833 88.348 88.5652 87.9852C89.178 87.7012 89.8362 87.5572 90.522 87.5572C93.0293 87.5572 95.0691 89.5352 95.0691 91.9665C95.0691 94.3977 93.029 96.3757 90.5218 96.3757Z" fill="#7B7B7B"/>
<path d="M34.9973 206.28V229H31.3813V218.984H19.9253V229H16.3413V206.28H19.9253V215.784H31.3813V206.28H34.9973ZM39.6745 209.512V205.64H43.1945V209.512H39.6745ZM39.6745 229V212.264H43.1945V229H39.6745ZM59.0725 229L53.6965 221.288L50.9445 223.912V229H47.4245V205.64H50.9445V220.36L58.6885 212.296H62.4645L55.9685 219.304L62.8165 229H59.0725ZM71.6648 229.32C69.9368 229.32 68.4221 228.925 67.1208 228.136C65.8194 227.347 64.8061 226.301 64.0807 225C63.3554 223.677 62.9928 222.237 62.9928 220.68C62.9928 219.101 63.3554 217.651 64.0807 216.328C64.8061 215.005 65.8194 213.949 67.1208 213.16C68.4221 212.371 69.9474 211.976 71.6968 211.976C73.4461 211.976 74.9608 212.381 76.2408 213.192C77.5208 213.981 78.5021 215.027 79.1848 216.328C79.8888 217.629 80.2408 219.027 80.2408 220.52C80.2408 221.053 80.2088 221.48 80.1448 221.8H66.7368C66.8008 222.781 67.0674 223.645 67.5368 224.392C68.0274 225.117 68.6354 225.693 69.3608 226.12C70.1074 226.525 70.9181 226.728 71.7928 226.728C72.7314 226.728 73.6168 226.493 74.4488 226.024C75.2808 225.555 75.8568 224.936 76.1768 224.168L79.1848 225.032C78.6088 226.291 77.6488 227.325 76.3048 228.136C74.9821 228.925 73.4354 229.32 71.6648 229.32ZM66.6408 219.464H76.7528C76.6674 218.504 76.3901 217.661 75.9208 216.936C75.4514 216.189 74.8434 215.613 74.0968 215.208C73.3714 214.781 72.5608 214.568 71.6648 214.568C70.7901 214.568 69.9794 214.781 69.2328 215.208C68.5074 215.613 67.9101 216.189 67.4408 216.936C66.9714 217.661 66.7048 218.504 66.6408 219.464ZM90.0263 217.48C90.0263 216.093 90.2716 214.728 90.7623 213.384C91.2529 212.04 91.9676 210.824 92.9062 209.736C93.8663 208.648 95.0183 207.784 96.3623 207.144C97.7276 206.483 99.2849 206.152 101.034 206.152C103.082 206.152 104.853 206.611 106.346 207.528C107.84 208.445 108.949 209.64 109.674 211.112L106.858 213C106.432 212.083 105.888 211.368 105.226 210.856C104.586 210.323 103.882 209.949 103.114 209.736C102.368 209.501 101.632 209.384 100.906 209.384C99.7116 209.384 98.6663 209.629 97.7703 210.12C96.8743 210.589 96.1169 211.219 95.4983 212.008C94.9009 212.797 94.4423 213.683 94.1223 214.664C93.8236 215.645 93.6743 216.627 93.6743 217.608C93.6743 219.08 93.9836 220.456 94.6023 221.736C95.2423 222.995 96.1063 224.019 97.1943 224.808C98.3036 225.576 99.5729 225.96 101.002 225.96C101.728 225.96 102.485 225.832 103.274 225.576C104.064 225.32 104.789 224.925 105.45 224.392C106.112 223.837 106.645 223.112 107.05 222.216L110.026 223.912C109.557 225.043 108.821 226.003 107.818 226.792C106.837 227.581 105.728 228.179 104.49 228.584C103.274 228.989 102.069 229.192 100.874 229.192C99.2743 229.192 97.8129 228.861 96.4903 228.2C95.1676 227.517 94.0263 226.621 93.0663 225.512C92.1063 224.381 91.3596 223.123 90.8263 221.736C90.2929 220.328 90.0263 218.909 90.0263 217.48ZM120.382 229.32C118.633 229.32 117.107 228.925 115.806 228.136C114.526 227.325 113.534 226.269 112.83 224.968C112.126 223.645 111.774 222.205 111.774 220.648C111.774 219.091 112.126 217.661 112.83 216.36C113.555 215.037 114.558 213.981 115.838 213.192C117.139 212.381 118.654 211.976 120.382 211.976C122.11 211.976 123.614 212.381 124.894 213.192C126.195 213.981 127.198 215.037 127.902 216.36C128.627 217.661 128.99 219.091 128.99 220.648C128.99 222.205 128.638 223.645 127.934 224.968C127.23 226.269 126.227 227.325 124.926 228.136C123.646 228.925 122.131 229.32 120.382 229.32ZM115.39 220.68C115.39 221.747 115.614 222.707 116.062 223.56C116.51 224.413 117.107 225.085 117.854 225.576C118.601 226.067 119.443 226.312 120.382 226.312C121.299 226.312 122.131 226.067 122.878 225.576C123.646 225.064 124.254 224.381 124.702 223.528C125.15 222.675 125.374 221.715 125.374 220.648C125.374 219.581 125.15 218.621 124.702 217.768C124.254 216.915 123.646 216.243 122.878 215.752C122.131 215.24 121.299 214.984 120.382 214.984C119.465 214.984 118.622 215.24 117.854 215.752C117.107 216.243 116.51 216.925 116.062 217.8C115.614 218.653 115.39 219.613 115.39 220.68ZM132.144 205.64H135.664V224.168C135.664 225.021 135.792 225.565 136.048 225.8C136.304 226.035 136.624 226.152 137.008 226.152C137.435 226.152 137.84 226.109 138.224 226.024C138.608 225.939 138.928 225.832 139.184 225.704L139.696 228.488C139.184 228.701 138.576 228.883 137.872 229.032C137.168 229.181 136.539 229.256 135.984 229.256C134.789 229.256 133.851 228.925 133.168 228.264C132.485 227.581 132.144 226.643 132.144 225.448V205.64ZM141.769 205.64H145.289V224.168C145.289 225.021 145.417 225.565 145.673 225.8C145.929 226.035 146.249 226.152 146.633 226.152C147.06 226.152 147.465 226.109 147.849 226.024C148.233 225.939 148.553 225.832 148.809 225.704L149.321 228.488C148.809 228.701 148.201 228.883 147.497 229.032C146.793 229.181 146.164 229.256 145.609 229.256C144.414 229.256 143.476 228.925 142.793 228.264C142.11 227.581 141.769 226.643 141.769 225.448V205.64ZM158.946 229.32C157.218 229.32 155.703 228.925 154.402 228.136C153.101 227.347 152.087 226.301 151.362 225C150.637 223.677 150.274 222.237 150.274 220.68C150.274 219.101 150.637 217.651 151.362 216.328C152.087 215.005 153.101 213.949 154.402 213.16C155.703 212.371 157.229 211.976 158.978 211.976C160.727 211.976 162.242 212.381 163.522 213.192C164.802 213.981 165.783 215.027 166.466 216.328C167.17 217.629 167.522 219.027 167.522 220.52C167.522 221.053 167.49 221.48 167.426 221.8H154.018C154.082 222.781 154.349 223.645 154.818 224.392C155.309 225.117 155.917 225.693 156.642 226.12C157.389 226.525 158.199 226.728 159.074 226.728C160.013 226.728 160.898 226.493 161.73 226.024C162.562 225.555 163.138 224.936 163.458 224.168L166.466 225.032C165.89 226.291 164.93 227.325 163.586 228.136C162.263 228.925 160.717 229.32 158.946 229.32ZM153.922 219.464H164.034C163.949 218.504 163.671 217.661 163.202 216.936C162.733 216.189 162.125 215.613 161.378 215.208C160.653 214.781 159.842 214.568 158.946 214.568C158.071 214.568 157.261 214.781 156.514 215.208C155.789 215.613 155.191 216.189 154.722 216.936C154.253 217.661 153.986 218.504 153.922 219.464ZM177.977 229.32C176.249 229.32 174.735 228.925 173.433 228.136C172.132 227.325 171.119 226.259 170.393 224.936C169.668 223.613 169.305 222.173 169.305 220.616C169.305 219.059 169.657 217.629 170.361 216.328C171.087 215.005 172.089 213.949 173.369 213.16C174.671 212.371 176.207 211.976 177.977 211.976C179.705 211.976 181.188 212.36 182.425 213.128C183.684 213.875 184.623 214.877 185.241 216.136L181.817 217.224C181.433 216.52 180.889 215.976 180.185 215.592C179.503 215.187 178.745 214.984 177.913 214.984C176.975 214.984 176.121 215.229 175.353 215.72C174.607 216.189 174.009 216.851 173.561 217.704C173.135 218.557 172.921 219.528 172.921 220.616C172.921 221.704 173.145 222.675 173.593 223.528C174.063 224.381 174.671 225.064 175.417 225.576C176.185 226.067 177.028 226.312 177.945 226.312C178.799 226.312 179.609 226.088 180.377 225.64C181.145 225.192 181.657 224.648 181.913 224.008L185.369 225.032C184.815 226.291 183.887 227.325 182.585 228.136C181.284 228.925 179.748 229.32 177.977 229.32ZM197.58 228.136C197.132 228.349 196.514 228.595 195.724 228.872C194.935 229.128 194.092 229.256 193.196 229.256C192.087 229.256 191.127 228.957 190.316 228.36C189.527 227.763 189.132 226.792 189.132 225.448V214.984H186.924V212.264H189.132V206.76H192.652V212.264H196.3V214.984H192.652V224.328C192.695 224.925 192.876 225.363 193.196 225.64C193.538 225.896 193.954 226.024 194.444 226.024C194.935 226.024 195.404 225.939 195.852 225.768C196.3 225.597 196.631 225.459 196.844 225.352L197.58 228.136ZM200.018 209.512V205.64H203.538V209.512H200.018ZM200.018 229V212.264H203.538V229H200.018ZM215.288 229.32C213.539 229.32 212.014 228.925 210.712 228.136C209.432 227.325 208.44 226.269 207.736 224.968C207.032 223.645 206.68 222.205 206.68 220.648C206.68 219.091 207.032 217.661 207.736 216.36C208.462 215.037 209.464 213.981 210.744 213.192C212.046 212.381 213.56 211.976 215.288 211.976C217.016 211.976 218.52 212.381 219.8 213.192C221.102 213.981 222.104 215.037 222.808 216.36C223.534 217.661 223.896 219.091 223.896 220.648C223.896 222.205 223.544 223.645 222.84 224.968C222.136 226.269 221.134 227.325 219.832 228.136C218.552 228.925 217.038 229.32 215.288 229.32ZM210.296 220.68C210.296 221.747 210.52 222.707 210.968 223.56C211.416 224.413 212.014 225.085 212.76 225.576C213.507 226.067 214.35 226.312 215.288 226.312C216.206 226.312 217.038 226.067 217.784 225.576C218.552 225.064 219.16 224.381 219.608 223.528C220.056 222.675 220.28 221.715 220.28 220.648C220.28 219.581 220.056 218.621 219.608 217.768C219.16 216.915 218.552 216.243 217.784 215.752C217.038 215.24 216.206 214.984 215.288 214.984C214.371 214.984 213.528 215.24 212.76 215.752C212.014 216.243 211.416 216.925 210.968 217.8C210.52 218.653 210.296 219.613 210.296 220.68ZM242.026 229H238.506V219.624C238.506 218.045 238.25 216.904 237.738 216.2C237.248 215.475 236.512 215.112 235.53 215.112C234.848 215.112 234.165 215.283 233.482 215.624C232.821 215.965 232.224 216.435 231.69 217.032C231.157 217.629 230.773 218.301 230.538 219.048V229H227.018V212.264H230.218V215.624C230.858 214.515 231.786 213.629 233.002 212.968C234.218 212.307 235.562 211.976 237.034 211.976C238.357 211.976 239.381 212.296 240.106 212.936C240.832 213.555 241.333 214.376 241.61 215.4C241.888 216.424 242.026 217.555 242.026 218.792V229Z" fill="#7B7B7B"/>
<line x1="12.9955" y1="241.995" x2="245.005" y2="241.995" stroke="#2DD36F" stroke-width="4"/>
</svg>
